<?xml version="1.0" standalone="no"?>
<!DOCTYPE svg PUBLIC "-//W3C//DTD SVG 20010904//EN"
 "http://www.w3.org/TR/2001/REC-SVG-20010904/DTD/svg10.dtd">
<svg version="1.0" xmlns="http://www.w3.org/2000/svg"
 width="641.000000pt" height="854.000000pt" viewBox="0 0 641.000000 854.000000"
 preserveAspectRatio="xMidYMid meet">

<g transform="translate(0.000000,854.000000) scale(0.100000,-0.100000)"
fill="#000000" stroke="none">
<path d="M3030 8529 c-299 -20 -644 -99 -895 -206 -202 -86 -264 -116 -354
-172 -46 -29 -100 -62 -120 -73 -33 -19 -106 -71 -238 -170 -88 -67 -308 -284
-401 -396 -99 -119 -212 -283 -285 -411 -26 -46 -47 -86 -47 -89 0 -2 -9 -17
-20 -32 -28 -40 -162 -377 -192 -485 -79 -279 -108 -498 -108 -794 0 -265 12
-374 72 -656 32 -151 127 -424 195 -560 50 -101 120 -226 200 -360 138 -230
192 -322 213 -365 13 -24 63 -111 111 -193 49 -81 89 -151 89 -155 0 -3 11
-22 24 -41 13 -20 83 -142 156 -271 73 -129 159 -278 190 -330 32 -52 78 -133
104 -180 26 -47 59 -105 75 -130 15 -25 43 -74 63 -110 20 -36 57 -100 82
-143 25 -43 46 -80 46 -82 0 -3 34 -61 75 -129 41 -68 75 -127 75 -130 0 -4
33 -62 74 -130 41 -68 93 -159 116 -202 24 -44 48 -86 55 -94 7 -8 29 -46 50
-85 60 -110 265 -467 285 -495 10 -14 41 -70 70 -125 29 -55 58 -107 65 -115
6 -8 24 -37 40 -65 15 -27 38 -68 50 -90 203 -354 254 -440 261 -439 5 1 62
95 128 210 65 115 128 225 139 244 11 19 31 55 45 80 13 24 32 56 41 70 10 14
39 64 65 113 25 48 61 111 80 140 18 28 93 158 166 287 74 129 148 258 165
285 18 28 35 58 39 69 3 10 49 90 101 177 52 88 95 162 95 166 0 3 20 38 44
77 24 39 106 181 183 316 78 135 160 279 183 320 24 41 84 146 134 232 50 87
112 195 138 240 27 46 78 135 114 198 37 63 81 142 99 175 18 33 69 121 114
195 45 74 81 138 81 142 0 4 26 52 58 105 148 247 263 445 302 518 23 44 46
85 50 90 14 19 122 298 150 389 47 153 93 376 110 541 16 148 13 480 -5 620
-29 225 -67 402 -119 550 -51 147 -143 372 -164 403 -10 15 -40 67 -66 115
-46 85 -147 240 -210 322 -125 163 -358 402 -480 493 -28 21 -85 63 -126 94
-41 31 -91 65 -111 76 -20 11 -74 44 -120 73 -91 57 -154 87 -354 172 -367
155 -841 233 -1245 206z m379 -1785 c218 -39 455 -175 602 -346 152 -176 227
-351 260 -599 23 -179 -16 -389 -106 -574 -110 -226 -260 -377 -489 -490 -236
-117 -501 -143 -760 -73 -97 26 -281 118 -362 180 -72 56 -158 144 -214 218
-58 77 -145 260 -169 355 -57 230 -51 389 24 635 51 165 189 359 341 480 90
72 290 172 399 200 143 37 314 42 474 14z"/>
</g>
</svg>
